<?xml version="1.0" encoding="utf-8"?>
<!-- Generator: Adobe Illustrator 25.0.0, SVG Export Plug-In . SVG Version: 6.00 Build 0)  -->
<svg version="1.1" id="Calque_1" xmlns="http://www.w3.org/2000/svg" xmlns:xlink="http://www.w3.org/1999/xlink" x="0px" y="0px"
	 viewBox="0 0 100 100" style="enable-background:new 0 0 100 100;" xml:space="preserve">
<style type="text/css">
	.st0{fill:#4DB68F;}
</style>
<g>
	<path class="st0" d="M38.08,72.09H5.3v-2.54h0.92c2.49,0,4.28-0.39,5.36-1.17c1.08-0.78,1.73-1.81,1.95-3.09
		c0.21-1.27,0.32-3.33,0.32-6.15V18.3c0-2.37-0.17-4.14-0.5-5.32c-0.34-1.18-1.09-2.04-2.27-2.58C9.91,9.86,7.98,9.59,5.3,9.59V7.06
		h31.46c2.79,0,5.34,0.42,7.67,1.27c2.33,0.85,4.3,2.01,5.91,3.5c1.61,1.49,2.86,3.23,3.76,5.23c0.9,2,1.35,4.16,1.35,6.5
		c0,2.52-0.56,4.83-1.69,6.94c-1.12,2.1-2.84,3.87-5.14,5.3c-2.3,1.43-5.1,2.42-8.4,2.97c5.41,0.83,9.56,2.76,12.45,5.78
		c2.89,3.03,4.34,6.8,4.34,11.32c0,2.33-0.44,4.49-1.33,6.48c-0.88,1.98-2.16,3.7-3.82,5.16c-1.66,1.46-3.67,2.59-6.03,3.39
		C43.48,71.69,40.89,72.09,38.08,72.09z M17.75,62V15.72c0-2.09-0.36-3.63-1.08-4.63c-0.72-1-2.06-1.5-4.02-1.5h-0.84
		c1.29,0.43,2.17,1.16,2.65,2.19c0.48,1.03,0.72,2.7,0.72,5v45.49c0,2.34-0.26,4-0.78,4.98c-0.52,0.98-1.39,1.75-2.59,2.3h1.17
		c2.09,0,3.41-0.71,3.96-2.14C17.48,65.98,17.75,64.18,17.75,62z M23.9,37.34h7.51c3.62,0,6.27-0.49,7.95-1.48
		c1.55-0.92,2.81-2.48,3.76-4.68c0.95-2.2,1.43-4.68,1.43-7.44c0-2.21-0.3-4.28-0.9-6.2c-0.6-1.92-1.45-3.5-2.55-4.72
		c-1.15-1.38-2.42-2.27-3.8-2.65c-1.38-0.38-3.23-0.58-5.56-0.58c-3.05,0-5.12,0.54-6.21,1.61c-1.08,1.08-1.63,2.93-1.63,5.58V37.34
		z M23.9,39.92v22.45c0,1.57,0.16,2.8,0.48,3.71c0.32,0.91,0.86,1.63,1.63,2.17c0.76,0.54,1.71,0.89,2.83,1.06s2.66,0.25,4.62,0.25
		c2.76,0,5.04-0.56,6.85-1.68c1.81-1.12,3.16-2.75,4.06-4.88c0.9-2.14,1.35-4.74,1.35-7.81c0-3.1-0.51-5.8-1.53-8.09
		c-1.02-2.29-2.47-4.06-4.36-5.3c-1.89-1.24-4.15-1.87-6.77-1.87H23.9z M38.81,40.01c2.68,1.17,4.72,2.98,6.13,5.44
		c1.41,2.46,2.11,5.7,2.11,9.73c0,7.68-2.69,12.6-8.07,14.75c3.45-0.46,6.07-2,7.85-4.63c1.78-2.63,2.67-6.21,2.67-10.76
		c0-4.21-0.94-7.61-2.83-10.21C44.77,41.73,42.15,40.29,38.81,40.01z M39.29,37.34c6.11-1.81,9.16-6.44,9.16-13.87
		c0-2.43-0.35-4.65-1.04-6.66c-0.7-2.01-1.75-3.66-3.15-4.96c-1.41-1.29-3.14-2.04-5.2-2.26c2.2,1.04,3.88,2.82,5.06,5.32
		c1.18,2.5,1.77,5.52,1.77,9.06C45.88,30.43,43.68,34.88,39.29,37.34z"/>
</g>
<g>
	<g>
		<path class="st0" d="M89.72,41.66l0.55,16.26h-1.74c-0.99-2.31-2.1-4.38-3.34-6.2c-1.24-1.82-2.53-3.31-3.86-4.48
			c-1.33-1.17-2.72-2.03-4.18-2.6c-1.46-0.56-2.97-0.85-4.53-0.85c-2.96,0-5.59,1.04-7.91,3.13c-2.31,2.09-4.11,4.99-5.38,8.7
			c-1.28,3.71-1.91,7.96-1.91,12.76c0,4.77,0.7,9.02,2.11,12.76c1.4,3.74,3.3,6.64,5.69,8.7c2.39,2.06,4.99,3.1,7.79,3.1
			c1.65,0,3.19-0.37,4.61-1.11c1.42-0.74,2.5-1.7,3.23-2.88c0.58-0.91,0.95-1.89,1.12-2.95c0.17-1.06,0.26-2.37,0.26-3.95
			c0-2.48-0.11-4.22-0.34-5.22c-0.22-1-0.77-1.7-1.62-2.1s-2.34-0.71-4.44-0.9v-2.1H96.7v2.1c-2.12,0.2-3.59,0.49-4.42,0.87
			c-0.82,0.38-1.38,1.07-1.65,2.07c-0.28,1-0.42,2.69-0.42,5.07v8.22c-1.78,1.06-3.69,1.99-5.74,2.78c-2.04,0.8-4.11,1.42-6.2,1.86
			c-2.09,0.44-4.15,0.66-6.19,0.66c-3.75,0-7.13-0.69-10.15-2.06c-3.02-1.38-5.56-3.31-7.62-5.79c-2.06-2.48-3.61-5.35-4.66-8.59
			c-1.05-3.24-1.57-6.65-1.57-10.21c0-3.49,0.52-6.9,1.56-10.21c1.04-3.32,2.53-6.26,4.48-8.83c1.95-2.57,4.29-4.6,7.04-6.08
			c2.74-1.49,5.75-2.23,9.03-2.23c2.21,0,4.75,0.36,7.63,1.07c2.88,0.71,4.69,1.07,5.42,1.07c1.99,0,3.38-0.61,4.15-1.84H89.72z
			 M67.55,94.09c-2.12-1.08-3.92-2.14-5.4-3.19s-2.99-2.5-4.53-4.37c-2.04-2.51-3.61-5.35-4.72-8.54c-1.12-3.18-1.67-6.35-1.67-9.5
			c0-3.66,0.71-7.35,2.14-11.06c1.43-3.71,3.37-6.91,5.83-9.59c1.22-1.3,2.37-2.3,3.46-3s2.36-1.43,3.84-2.19
			c-1.54,0.34-2.76,0.73-3.66,1.14c-1.86,0.84-3.62,2.06-5.25,3.67c-1.64,1.61-3.11,3.57-4.42,5.86c-1.31,2.3-2.3,4.73-2.99,7.3
			s-1.03,5.22-1.03,7.95c0,3.44,0.56,6.84,1.69,10.2c1.12,3.36,2.68,6.19,4.68,8.5c1.22,1.38,2.46,2.49,3.73,3.34
			c1.26,0.85,2.5,1.51,3.71,1.99C64.14,93.08,65.68,93.57,67.55,94.09z M83.29,79.41v4.87c0,1.5-0.34,2.98-1.03,4.44
			c-0.69,1.46-1.8,2.67-3.34,3.63c1.69-0.42,3.01-1.01,3.94-1.79s1.6-1.78,1.99-3s0.59-2.83,0.59-4.79c0-2.43-0.08-4.18-0.24-5.25
			s-0.57-1.91-1.22-2.51c-0.65-0.6-1.7-0.99-3.13-1.16c0.79,0.66,1.4,1.38,1.82,2.16S83.29,77.92,83.29,79.41z M86.64,51.58
			l-0.45-6.71c-0.96,0.44-1.76,0.66-2.38,0.66c-0.47,0-0.9-0.03-1.29-0.09c-0.38-0.06-0.81-0.16-1.29-0.29
			c-0.47-0.13-0.8-0.23-1-0.28C82.43,46.39,84.56,48.63,86.64,51.58z"/>
	</g>
</g>
<g>
</g>
<g>
</g>
<g>
</g>
<g>
</g>
<g>
</g>
<g>
</g>
</svg>
